<?xml version="1.0" encoding="utf-8"?>
<!-- Generator: Adobe Illustrator 24.3.0, SVG Export Plug-In . SVG Version: 6.00 Build 0)  -->
<svg version="1.1" id="logo-15" xmlns="http://www.w3.org/2000/svg" xmlns:xlink="http://www.w3.org/1999/xlink" x="0px" y="0px"
	 viewBox="0 0 49 48" style="enable-background:new 0 0 49 48;" xml:space="preserve">
<style type="text/css">
	.st0{fill:#16A34A;}
	.st1{fill:#0284C7;}
</style>
<path class="st0" d="M24.5,12.8c0,6.2-5,11.2-11.2,11.2H2V12.8C2,6.5,7,1.5,13.2,1.5C19.5,1.5,24.5,6.5,24.5,12.8z"/>
<path class="st0" d="M24.5,35.2c0-6.2,5-11.2,11.2-11.2H47v11.2c0,6.2-5,11.2-11.2,11.2S24.5,41.5,24.5,35.2z"/>
<path class="st1" d="M2,35.2c0,6.2,5,11.2,11.2,11.2h11.2V35.2c0-6.2-5-11.2-11.2-11.2C7,24,2,29,2,35.2z"/>
<path class="st1" d="M47,12.8c0-6.2-5-11.2-11.2-11.2H24.5v11.2c0,6.2,5,11.2,11.2,11.2S47,19,47,12.8z"/>
</svg>
